<svg width="54" height="54" viewBox="0 0 54 54" fill="none" xmlns="http://www.w3.org/2000/svg">
<path d="M0 6C0 2.68629 2.68629 0 6 0H48C51.3137 0 54 2.68629 54 6V48C54 51.3137 51.3137 54 48 54H6C2.68629 54 0 51.3137 0 48V6Z" fill="#F4EDEE"/>
<path d="M38 34C38 34.5304 37.7893 35.0391 37.4142 35.4142C37.0391 35.7893 36.5304 36 36 36H18C17.4696 36 16.9609 35.7893 16.5858 35.4142C16.2107 35.0391 16 34.5304 16 34V23C16 22.4696 16.2107 21.9609 16.5858 21.5858C16.9609 21.2107 17.4696 21 18 21H22L24 18H30L32 21H36C36.5304 21 37.0391 21.2107 37.4142 21.5858C37.7893 21.9609 38 22.4696 38 23V34Z" stroke="#25282B" stroke-width="2" stroke-linecap="round" stroke-linejoin="round"/>
<path d="M27 32C29.2091 32 31 30.2091 31 28C31 25.7909 29.2091 24 27 24C24.7909 24 23 25.7909 23 28C23 30.2091 24.7909 32 27 32Z" stroke="#25282B" stroke-width="2" stroke-linecap="round" stroke-linejoin="round"/>
</svg>
